# xmcd
#
# Track frame offsets:
#	150
#	16823
#	34735
#	50371
#	68060
#	86353
#	102723
#	116557
#	133086
#	146839
#	163142
#
# Disc length: 2366 seconds
#
# Revision: 2
# Processed by: cddbd v1.5.2PL0 Copyright (c) Steve Scherf et al.
# Submitted via: audiograbber 1.83.01
#
DISCID=97093c0b
DTITLE=Various Artist - CDX 419
DYEAR=2007
DGENRE=Country
TTITLE0=Megan Mullins - Cryin' Days
TTITLE1=Halfway To Hazard - Daisy
TTITLE2=Van Zant - That Scares Me
TTITLE3=John Mellencamp - The Americans
TTITLE4=Vince Gill - What You Give Away
TTITLE5=Heartland - I Loved Her First
TTITLE6=T. Graham Brown - The Chase
TTITLE7=Roadmark - Back In My Hometown
TTITLE8=Dan Story - Drunk Dialing
TTITLE9=Jamie Lee Thurston - People Out There
TTITLE10=Jeff Golden - Shake It
EXTD=
EXTT0=
EXTT1=
EXTT2=
EXTT3=
EXTT4=
EXTT5=
EXTT6=
EXTT7=
EXTT8=
EXTT9=
EXTT10=
PLAYORDER=
